<mxfile host="app.diagrams.net" agent="Mozilla/5.0 (Windows NT 10.0; Win64; x64) AppleWebKit/537.36 (KHTML, like Gecko) Chrome/137.0.0.0 Safari/537.36" version="27.1.4">
  <diagram name="PÃ¡gina-1" id="RM-Z10JQj7qjmOWt2UrK">
    <mxGraphModel dx="-287" dy="567" grid="1" gridSize="10" guides="1" tooltips="1" connect="1" arrows="1" fold="1" page="1" pageScale="1" pageWidth="827" pageHeight="1169" math="0" shadow="0">
      <root>
        <mxCell id="0" />
        <mxCell id="1" parent="0" />
        <mxCell id="nC28ZU3QJ74QI2WHARkL-34" value="" style="edgeStyle=orthogonalEdgeStyle;rounded=0;orthogonalLoop=1;jettySize=auto;html=1;" edge="1" parent="1" source="nC28ZU3QJ74QI2WHARkL-37" target="nC28ZU3QJ74QI2WHARkL-41">
          <mxGeometry relative="1" as="geometry" />
        </mxCell>
        <mxCell id="nC28ZU3QJ74QI2WHARkL-35" style="edgeStyle=orthogonalEdgeStyle;rounded=0;orthogonalLoop=1;jettySize=auto;html=1;exitX=1;exitY=0.5;exitDx=0;exitDy=0;" edge="1" parent="1" source="nC28ZU3QJ74QI2WHARkL-37" target="nC28ZU3QJ74QI2WHARkL-39">
          <mxGeometry relative="1" as="geometry" />
        </mxCell>
        <mxCell id="nC28ZU3QJ74QI2WHARkL-36" style="edgeStyle=orthogonalEdgeStyle;rounded=0;orthogonalLoop=1;jettySize=auto;html=1;exitX=1;exitY=0.5;exitDx=0;exitDy=0;" edge="1" parent="1" source="nC28ZU3QJ74QI2WHARkL-37" target="nC28ZU3QJ74QI2WHARkL-43">
          <mxGeometry relative="1" as="geometry" />
        </mxCell>
        <mxCell id="nC28ZU3QJ74QI2WHARkL-37" value="&lt;font style=&quot;font-size: 24px;&quot; face=&quot;Garamond&quot;&gt;&lt;b&gt;Input&amp;nbsp;&lt;/b&gt;&lt;/font&gt;" style="rounded=0;whiteSpace=wrap;html=1;shadow=1;align=center;fillColor=#C9FFE8;" vertex="1" parent="1">
          <mxGeometry x="1670" y="10" width="130" height="290" as="geometry" />
        </mxCell>
        <mxCell id="nC28ZU3QJ74QI2WHARkL-38" style="edgeStyle=orthogonalEdgeStyle;rounded=0;orthogonalLoop=1;jettySize=auto;html=1;exitX=1;exitY=0.5;exitDx=0;exitDy=0;entryX=-0.003;entryY=0.122;entryDx=0;entryDy=0;entryPerimeter=0;" edge="1" parent="1" source="nC28ZU3QJ74QI2WHARkL-39" target="nC28ZU3QJ74QI2WHARkL-44">
          <mxGeometry relative="1" as="geometry" />
        </mxCell>
        <mxCell id="nC28ZU3QJ74QI2WHARkL-39" value="&lt;h2&gt;&lt;font face=&quot;Garamond&quot;&gt;Task Category Classifier&lt;/font&gt;&lt;/h2&gt;" style="rounded=0;whiteSpace=wrap;html=1;shadow=1;" vertex="1" parent="1">
          <mxGeometry x="1840" y="10" width="320" height="70" as="geometry" />
        </mxCell>
        <mxCell id="nC28ZU3QJ74QI2WHARkL-40" value="" style="edgeStyle=orthogonalEdgeStyle;rounded=0;orthogonalLoop=1;jettySize=auto;html=1;" edge="1" parent="1" source="nC28ZU3QJ74QI2WHARkL-41" target="nC28ZU3QJ74QI2WHARkL-44">
          <mxGeometry relative="1" as="geometry" />
        </mxCell>
        <mxCell id="nC28ZU3QJ74QI2WHARkL-41" value="&lt;h2&gt;&lt;font face=&quot;Garamond&quot;&gt;Task Priority Classifier&lt;/font&gt;&lt;/h2&gt;" style="rounded=0;whiteSpace=wrap;html=1;shadow=1;" vertex="1" parent="1">
          <mxGeometry x="1840" y="120" width="320" height="70" as="geometry" />
        </mxCell>
        <mxCell id="nC28ZU3QJ74QI2WHARkL-42" style="edgeStyle=orthogonalEdgeStyle;rounded=0;orthogonalLoop=1;jettySize=auto;html=1;exitX=1;exitY=0.5;exitDx=0;exitDy=0;entryX=-0.003;entryY=0.876;entryDx=0;entryDy=0;entryPerimeter=0;" edge="1" parent="1" source="nC28ZU3QJ74QI2WHARkL-43" target="nC28ZU3QJ74QI2WHARkL-44">
          <mxGeometry relative="1" as="geometry" />
        </mxCell>
        <mxCell id="nC28ZU3QJ74QI2WHARkL-43" value="&lt;h2&gt;&lt;font face=&quot;Garamond&quot;&gt;Task Duration Predictor&lt;/font&gt;&lt;/h2&gt;" style="rounded=0;whiteSpace=wrap;html=1;shadow=1;" vertex="1" parent="1">
          <mxGeometry x="1840" y="230" width="320" height="70" as="geometry" />
        </mxCell>
        <mxCell id="nC28ZU3QJ74QI2WHARkL-44" value="&lt;font style=&quot;font-size: 24px;&quot; face=&quot;Garamond&quot;&gt;&lt;b&gt;Click Up&lt;/b&gt;&lt;/font&gt;&lt;div&gt;&lt;font size=&quot;3&quot; face=&quot;Garamond&quot;&gt;&lt;b&gt;Api&lt;/b&gt;&lt;/font&gt;&lt;/div&gt;&lt;div&gt;&lt;font size=&quot;3&quot; face=&quot;Garamond&quot;&gt;&lt;b&gt;Integration&lt;/b&gt;&lt;/font&gt;&lt;/div&gt;" style="rounded=0;whiteSpace=wrap;html=1;shadow=1;align=center;fillColor=#CCCCCC;" vertex="1" parent="1">
          <mxGeometry x="2200" y="10" width="180" height="290" as="geometry" />
        </mxCell>
      </root>
    </mxGraphModel>
  </diagram>
</mxfile>
